<?xml version="1.0" encoding="UTF-8"?><svg id="Layer_2" xmlns="http://www.w3.org/2000/svg" viewBox="0 0 127.17 145.38"><defs><style>.cls-1{stroke:#231f20;stroke-miterlimit:10;stroke-width:2px;}.cls-1,.cls-2{fill:#fff;}.cls-3{fill:#ec1c24;}</style></defs><g id="Layer_1-2"><g><path class="cls-2" d="m1.8,14.47v63.12c0,17.63,9.81,33.84,29.16,48.16,14.13,10.46,28.38,16.11,31.09,17.14l1.52.57,1.53-.57c2.76-1.06,17.17-6.81,31.2-17.22,19.29-14.3,29.06-30.48,29.06-48.07V14.47l-2.98-1.03c-5.73-1.97-35.07-11.64-58.81-11.64S10.59,11.45,4.92,13.39l-3.12,1.09Z"/><path class="cls-1" d="m63.57,144.32l-1.8-.67c-2.73-1.03-17.07-6.72-31.28-17.24C11.2,112.12,1,95.25,1,77.6V13.9l3.66-1.28C10.35,10.69,39.93,1,63.57,1s53.32,9.71,58.98,11.65l3.62,1.25v63.69c0,41.63-54.54,63.66-60.76,66.04l-1.83.68ZM1.8,14.47v63.12c0,17.63,9.81,33.84,29.16,48.16,14.13,10.46,28.38,16.11,31.09,17.14l1.52.57,1.53-.57c2.76-1.06,17.17-6.81,31.2-17.22,19.29-14.3,29.06-30.48,29.06-48.07V14.47l-2.98-1.03c-5.73-1.97-35.07-11.64-58.81-11.64S10.59,11.45,4.92,13.39l-3.12,1.09Z"/><path class="cls-3" d="m63.57,118.36S16.34,98.66,6.22,65.46v12.14c0,39.82,57.35,61.13,57.35,61.13,0,0,57.37-21.31,57.37-61.13v-12.14c-10.11,33.2-57.37,52.9-57.37,52.9Z"/><path class="cls-3" d="m63.57,6.26c-24.89,0-57.35,11.37-57.35,11.37v22.18c2.16,37.97,57.35,58.28,57.35,58.28,0,0,55.18-20.31,57.37-58.28v-22.18S88.47,6.26,63.57,6.26ZM20.9,59.45c8.82.93,30.53,2.9,30.94-9.61.27-6.4-4.96-10.99-8.91-14.86-4.02-3.87-8.39-6.09-13.77-8.16,2.2,1.24,4.77,2.75,6.73,4.06,4.06,2.69,6.71,5.91,9.73,9.92.54.78,1.08,1.55,1.51,2.39-5.25-.62-9.62-1.7-14.74-3.1-2.64-.72-12.16-4.69-9.46-9.36,1.31-2.32,4.01-4.03,4.79-4.46l-.02-.02s.11-.04.17-.07l.04-.03v.02c8.64-4.21,18.38-5.9,27.75-6.36,2.75-.18,5.54-.35,8.29-.51-4.17,1.1-8.19,2.4-12.21,4.12-2.8,1.15-7.43,3.61-8.2,7.11,4,1.43,8.03,2.9,11.92,4.7,6.51,3.07,12.96,7.2,17.68,13.02,5.4,6.63,1.63,13.8-5.28,16.31-14.02,5.14-32.63,1.48-46.97-5.13Zm84.48-8.15c-7.95,10.81-21.5,14.76-35.15,19,9.3-5.99,13.85-15.71,9.45-23.86-4.67-8.57-16.48-15.01-26.9-17.31,4.67-2.08,8.65-2.86,13.46-3.53,1.55-.24,5.9-.63,7.44.06,2.02.9,6.54,5.16,7.97,6.58,5.66,5.42,9.29,12.27,8.14,19.61,8.72-6.39,4.16-19.65-6.52-26.91,7.6-1.23,14.7,2.71,19.45,6.8,5.35,4.67,6.68,14.08,2.66,19.56Z"/></g></g></svg>